<?xml version="1.0" encoding="UTF-8"?>
<svg id="Calque_1" data-name="Calque 1" xmlns="http://www.w3.org/2000/svg" xmlns:xlink="http://www.w3.org/1999/xlink" version="1.1" viewBox="0 0 3276 310">
  <defs>
    <style>
      .cls-1 {
        clip-path: url(#clippath);
      }

      .cls-2 {
        fill: none;
      }

      .cls-2, .cls-3, .cls-4, .cls-5, .cls-6 {
        stroke-width: 0px;
      }

      .cls-3 {
        fill-rule: evenodd;
      }

      .cls-3, .cls-6 {
        fill: #323330;
      }

      .cls-4 {
        fill: #d3bcff;
      }

      .cls-5 {
        fill: #bc9ef5;
      }

      .cls-7 {
        clip-path: url(#clippath-1);
      }
    </style>
    <clipPath id="clippath">
      <rect class="cls-2" x="615.9" y="32.8" width="243" height="243"/>
    </clipPath>
    <clipPath id="clippath-1">
      <rect class="cls-2" x="307.9" y="35.1" width="208" height="238.4"/>
    </clipPath>
  </defs>
  <g>
    <path class="cls-5" d="M1224.6,154.3c0-17.7-22-34.5-55.8-44.9,7.8-34.6,4.3-62.2-10.9-71-3.5-2.1-7.6-3.1-12.1-3.1v12.1c2.5,0,4.5.5,6.2,1.4,7.4,4.2,10.6,20.4,8.1,41.2-.6,5.1-1.6,10.5-2.8,16-10.6-2.6-22.2-4.6-34.4-5.9-7.3-10.1-14.9-19.2-22.5-27.2,17.7-16.5,34.2-25.5,45.5-25.5v-12.1c-14.9,0-34.4,10.7-54.1,29.2-19.7-18.4-39.2-29-54.1-29v12.1c11.2,0,27.8,9,45.5,25.4-7.6,8-15.2,17.1-22.4,27.2-12.2,1.3-23.8,3.3-34.4,6-1.2-5.4-2.2-10.7-2.8-15.8-2.5-20.8.6-37,7.9-41.3,1.6-1,3.7-1.4,6.2-1.4v-12.1c-4.5,0-8.7,1-12.2,3.1-15.2,8.8-18.6,36.3-10.8,70.9-33.7,10.5-55.6,27.2-55.6,44.8s22,34.5,55.8,44.9c-7.8,34.6-4.3,62.2,10.9,71,3.5,2.1,7.6,3.1,12.2,3.1,14.9,0,34.4-10.7,54.1-29.2,19.7,18.4,39.2,29,54.1,29s8.7-1,12.2-3.1c15.2-8.8,18.6-36.3,10.8-70.9,33.6-10.4,55.5-27.2,55.5-44.8ZM1154,118c-2,7-4.5,14.3-7.3,21.5-2.2-4.4-4.6-8.7-7.1-13.1-2.5-4.4-5.1-8.6-7.8-12.7,7.7,1.1,15.1,2.6,22.2,4.3ZM1129.2,176c-4.2,7.4-8.6,14.3-13.1,20.8-8.1.7-16.2,1.1-24.5,1.1s-16.4-.4-24.4-1c-4.5-6.5-8.9-13.4-13.1-20.7-4.1-7.1-7.9-14.4-11.3-21.7,3.4-7.3,7.1-14.6,11.2-21.7,4.2-7.4,8.6-14.3,13.1-20.8,8.1-.7,16.2-1.1,24.5-1.1s16.4.4,24.4,1c4.5,6.5,8.9,13.4,13.1,20.7,4.1,7.1,7.9,14.4,11.3,21.7-3.4,7.3-7.1,14.6-11.2,21.7ZM1146.7,168.9c2.9,7.3,5.4,14.6,7.5,21.7-7.1,1.7-14.6,3.2-22.3,4.4,2.7-4.2,5.3-8.5,7.8-12.9,2.5-4.4,4.8-8.8,7-13.1ZM1091.8,227.1c-5-5.2-10.1-11.1-15.1-17.4,4.9.2,9.9.4,14.9.4s10.1-.1,15.1-.4c-4.9,6.4-9.9,12.2-14.9,17.4ZM1051.5,195c-7.7-1.1-15.1-2.6-22.2-4.3,2-7,4.5-14.3,7.3-21.5,2.2,4.4,4.5,8.7,7.1,13.1,2.5,4.4,5.1,8.6,7.8,12.7ZM1091.5,81.6c5,5.2,10.1,11.1,15.1,17.4-4.9-.2-9.9-.4-14.9-.4s-10.1.1-15.1.4c4.9-6.4,9.9-12.2,14.9-17.4ZM1051.4,113.7c-2.7,4.2-5.3,8.5-7.8,12.9-2.5,4.4-4.8,8.7-7,13.1-2.9-7.3-5.4-14.6-7.5-21.7,7.1-1.7,14.6-3.2,22.3-4.3ZM1002.4,181.9c-19.2-8.2-31.6-19-31.6-27.6s12.4-19.4,31.6-27.6c4.7-2,9.7-3.8,15-5.5,3.1,10.7,7.1,21.8,12.2,33.2-5,11.3-9,22.4-12,33-5.4-1.7-10.5-3.5-15.2-5.6ZM1031.6,259.8c-7.4-4.2-10.6-20.4-8.1-41.2.6-5.1,1.6-10.5,2.8-16,10.6,2.6,22.2,4.6,34.4,5.9,7.3,10.1,14.9,19.2,22.5,27.2-17.7,16.5-34.2,25.5-45.5,25.5-2.4,0-4.5-.5-6.1-1.5ZM1160,218.2c2.5,20.8-.6,37-7.9,41.3-1.6,1-3.7,1.4-6.2,1.4-11.2,0-27.8-9-45.5-25.4,7.6-8,15.2-17.1,22.4-27.2,12.2-1.3,23.8-3.3,34.4-6,1.2,5.5,2.2,10.8,2.8,15.9ZM1180.9,181.9c-4.7,2-9.8,3.8-15,5.5-3.1-10.7-7.1-21.8-12.2-33.2,5-11.3,9-22.4,12-33,5.4,1.7,10.5,3.5,15.2,5.6,19.2,8.2,31.6,19,31.6,27.6,0,8.6-12.5,19.4-31.6,27.6Z"/>
    <path class="cls-5" d="M1091.6,180c13.7,0,24.8-11.1,24.8-24.9s-11.1-24.9-24.8-24.9-24.8,11.1-24.8,24.9,11.1,24.9,24.8,24.9Z"/>
  </g>
  <g>
    <path class="cls-5" d="M1422.5,37.9c5.9-3.4,13.6-3.4,19.4,0,29.6,16.8,59.2,33.5,88.8,50.3,5.6,3.1,9.3,9.4,9.2,15.8v100.8c0,6.7-4,13.1-9.9,16.1-29.5,16.7-59,33.4-88.4,50-6,3.4-13.8,3.2-19.6-.5-8.8-5.1-17.7-10.3-26.5-15.4-1.8-1.1-3.8-1.9-5.1-3.7,1.1-1.5,3.1-1.7,4.8-2.4,3.7-1.2,7.1-3.1,10.5-4.9.9-.6,1.9-.4,2.7.2,7.6,4.3,15.1,8.8,22.6,13.1,1.6.9,3.3-.3,4.6-1.1,28.9-16.4,57.9-32.7,86.8-49.1,1.1-.5,1.7-1.7,1.6-2.8,0-33.3,0-66.5,0-99.8.1-1.3-.6-2.6-1.8-3.1-29.4-16.6-58.8-33.2-88.1-49.8-.5-.4-1.1-.5-1.7-.5-.6,0-1.2.2-1.7.5-29.4,16.6-58.7,33.2-88.1,49.8-1.2.5-2,1.8-1.9,3.1,0,33.3,0,66.5,0,99.8,0,.6,0,1.2.4,1.7.3.5.7.9,1.2,1.1,7.8,4.5,15.7,8.9,23.5,13.3,4.4,2.4,9.8,3.8,14.7,2,4.3-1.5,7.3-5.9,7.2-10.5,0-33.1,0-66.1,0-99.2-.1-1.5,1.3-2.7,2.7-2.5,3.8,0,7.5,0,11.3,0,1.6,0,2.7,1.5,2.5,3,0,33.3,0,66.6,0,99.8,0,8.9-3.6,18.5-11.8,22.9-10.1,5.2-22.5,4.1-32.5-.9-8.6-4.3-16.8-9.4-25.3-14-5.9-3.1-10-9.4-9.9-16.1v-100.8c0-6.6,3.8-12.9,9.5-16,29.5-16.7,59-33.4,88.4-50.1Z"/>
    <path class="cls-5" d="M1448.2,114.7c12.9-.8,26.6-.5,38.2,5.9,9,4.9,13.9,15.1,14.1,25.1-.2,1.3-1.7,2.1-2.9,2-3.7,0-7.5,0-11.2,0-1.6,0-2.5-1.4-2.7-2.8-1.1-4.8-3.7-9.5-8.2-11.8-6.9-3.5-14.9-3.3-22.4-3.2-5.5.3-11.4.8-16,4-3.6,2.4-4.6,7.4-3.4,11.4,1.2,2.9,4.5,3.8,7.2,4.6,15.5,4.1,31.9,3.7,47.1,9,6.3,2.2,12.4,6.4,14.6,13,2.8,8.9,1.6,19.4-4.7,26.5-5.1,5.8-12.5,9-19.9,10.8-9.8,2.2-20.1,2.3-30.1,1.3-9.4-1.1-19.2-3.6-26.4-10-6.2-5.4-9.2-13.8-8.9-21.9,0-1.4,1.4-2.3,2.7-2.2,3.8,0,7.5,0,11.3,0,1.5-.1,2.6,1.2,2.7,2.6.7,4.5,2.4,9.3,6.4,12,7.6,4.9,17.2,4.6,26,4.7,7.2-.3,15.4-.4,21.3-5.2,3.1-2.7,4-7.3,3.2-11.3-.9-3.3-4.4-4.9-7.4-5.9-15.3-4.9-31.9-3.1-47-8.6-6.2-2.2-12.1-6.3-14.5-12.6-3.3-9-1.8-20.1,5.2-26.9,6.8-6.8,16.5-9.5,25.8-10.4Z"/>
  </g>
  <g class="cls-1">
    <g>
      <path class="cls-5" d="M615.9,32.8h243v243h-243V32.8Z"/>
      <path class="cls-6" d="M839,217.9c-1.8-11.1-9-20.4-30.4-29.1-7.4-3.4-15.7-5.9-18.2-11.5-.9-3.3-1-5.1-.4-7.1,1.6-6.4,9.3-8.5,15.4-6.6,3.9,1.3,7.6,4.3,9.9,9.2,10.5-6.8,10.5-6.7,17.8-11.4-2.7-4.2-4.1-6.1-5.9-7.9-6.3-7-14.9-10.7-28.6-10.4-2.4.3-4.8.6-7.2.9-6.9,1.7-13.4,5.3-17.2,10.2-11.5,13.1-8.2,35.9,5.8,45.3,13.8,10.3,34.1,12.7,36.6,22.4,2.5,11.8-8.7,15.7-19.9,14.3-8.2-1.7-12.8-5.9-17.7-13.5q-9.1,5.3-18.5,10.6c2.2,4.9,4.5,7,8.3,11.2,17.6,17.9,61.7,17,69.6-10,.3-.9,2.4-7.1.7-16.7ZM748,144.5h-22.7c0,19.6,0,39.1,0,58.8s.7,24-1.4,27.5c-3.3,6.9-12,6.1-15.9,4.7-4-2-6-4.8-8.4-8.7-.7-1.1-1.1-2-1.3-2.1-6.2,3.8-12.3,7.6-18.5,11.3,3.1,6.3,7.6,11.8,13.4,15.3,8.7,5.2,20.3,6.8,32.5,4,7.9-2.3,14.8-7.1,18.3-14.4,5.2-9.5,4.1-21.1,4-33.9.1-20.8,0-41.7,0-62.6Z"/>
    </g>
  </g>
  <g>
    <path class="cls-5" d="M17.4,248.8L0,35.2l208,.4-18.4,213.1-84.8,24.6-87.4-24.6Z"/>
    <path class="cls-4" d="M104.8,252.9V55.7l85.6.3-15.3,176.5-70.4,20.5Z"/>
    <path class="cls-6" d="M166.9,105.6l2.4-26.1H37.6l7.3,79.9h90.9l-3.6,34.1-29.1,7.9-29.5-8.6-1.6-20.3h-26.1l3.6,41.5,53.7,15,54.1-15,7.3-81.1h-95.5l-2.7-27.4h100.7Z"/>
  </g>
  <g class="cls-7">
    <g>
      <path class="cls-5" d="M325.4,248.5l-17.4-213,208,.4-18.4,212.6-84.8,24.6-87.4-24.6Z"/>
      <path class="cls-4" d="M412.7,252.5V55.8l85.6.3-15.3,176-70.4,20.4Z"/>
      <path class="cls-6" d="M477.1,81h-131.8l3.6,25.7h62.5l-61.5,26.4,3.6,24.9h90.6l-3.3,34.7-30.7,6-27.8-7.1-2.1-19.7h-25.6l3.4,41,54.8,15.3,52.5-16.7,6.7-80.1h-55.5l60.5-25.1v-25.1Z"/>
    </g>
  </g>
  <g>
    <path class="cls-5" d="M3139.5,15.8l7.4,13.8c1.7,2.6,3.4,4.8,5.6,6.9,6.2,6.1,12,12.6,17.3,19.5,12.5,16.4,20.9,34.6,26.9,54.3,3.6,12,5.6,24.4,5.7,36.8.6,37.3-12.2,69.3-38,95.9-4.2,4.2-8.7,8.1-13.5,11.6-2.6,0-3.8-2-4.8-3.8-1.9-3.3-3.2-7-3.8-10.8-.9-4.5-1.5-9-1.2-13.7v-2.1c-.2-.4-2.5-207.5-1.6-208.5Z"/>
    <path class="cls-4" d="M3139.5,14.5c-.3-.6-.6-.1-.9.1.1,3-.9,5.7-2.6,8.3-1.8,2.6-4.2,4.5-6.6,6.6-13.4,11.6-23.9,25.6-32.3,41.2-11.2,21-17,43.6-18.6,67.4-.8,8.6,2.7,38.8,5.4,47.5,7.4,23.2,20.6,42.6,37.7,59.4,4.2,4.1,8.7,7.8,13.4,11.4,1.4,0,1.5-1.2,1.8-2.1.6-1.9,1-3.9,1.4-5.9l3-22.6-1.7-211.4Z"/>
    <path class="cls-5" d="M3146.9,267.2c.3-3.5,2-6.3,3.8-9.2-1.8-.8-3.1-2.2-4.2-3.9-.9-1.6-1.7-3.2-2.2-5-2.1-6.3-2.6-12.9-3.2-19.4v-3.9c-.8.6-.9,5.7-.9,6.5-.4,6.8-1.4,13.6-2.7,20.3-.4,2.7-.8,5.4-2.4,7.8,0,.3,0,.6.1,1.1,2.7,8,3.4,16.1,3.9,24.4v3c0,3.6-.1,2.8,2.9,4.1,1.2.4,2.6.6,3.8,1.5.9,0,1.1-.8,1.1-1.4l-.5-5v-13.8c-.1-2.4.3-4.8.6-7.1h0Z"/>
  </g>
  <g>
    <rect class="cls-5" x="2735.9" y="33" width="242.6" height="242.6"/>
    <path class="cls-6" d="M2851,271.3c-10.6-2.1-19.8-9.4-24.3-19.3-2-4.3-2.8-8.4-2.8-13.7,0-15,9.5-27.5,24.1-32.1,2.7-.8,4.5-1.1,8.6-1.1,2.9,0,6,.1,7,.3l1.8.4,2.2-4.3c4.6-8.9,11.7-15.8,20.9-20.4,7.6-3.8,12.4-4.9,21.2-4.9s7.6.1,11.6,1.2c17.2,4.6,30.6,18,34.8,35,1.1,4.3,1.6,13.8,1,17.5l-.4,2.6,2.4.5c6,1.3,11.2,5.6,13.9,11.3,2.6,5.6,2.2,12.9-1.2,18.2-1.7,2.7-5.1,5.7-7.9,7.1-1.4.7-3,1.4-3.4,1.7-1,.5-107,.5-109.5,0h0ZM2961.2,265c3-1.5,5.9-4.8,7.2-8,2.5-6.7-.8-14.6-7.6-17.6-1.7-.8-3-.9-6.5-.9-2.4,0-4.4-.1-4.4-.3s.5-2.2,1-4.4c1.4-5.6,1.4-14.6,0-20.1-3.2-12.1-11.3-22.2-22.5-27.8-4.9-2.5-9.6-3.6-16-3.8-9.5-.4-16.1,1.1-23.3,5.3-8.5,4.9-15.8,13.7-18.6,22.4-.5,1.7-1.2,3.1-1.5,3.1-.3,0-1.8-.4-3.4-1-4.5-1.5-12.2-1.4-16.7.2-4.5,1.6-7.8,3.7-11.2,7-5.1,5.1-7.9,12-7.9,19.4,0,11,6,20.6,15.9,25.3,5.6,2.7,3.7,2.6,61.1,2.5h52.7c0,0,2.1-1.1,2.1-1.1h0ZM2809.3,243.8c-19.1-2.6-33.7-7.4-44.6-14.5-4.5-3-7.6-6.3-9.3-10l-1.3-2.8v-74.6c.1,0,.2-74.6.2-74.6l1.1-2c2.7-5.1,8.1-9.5,16.6-13.6,10.8-5.2,23.2-8.4,40.4-10.5,7.1-.9,31.3-.7,38.6.2,26.9,3.6,47.8,12.4,54.4,22.9,2.6,4.2,2.6,2.6,2.6,56.9v49.8l-1.5.2c-.8.1-2.6.4-4.1.5-14.8,1.6-30.2,11.8-38,25.4l-1.6,2.8-6.3.3c-7.5.4-11.3,1.3-17,4.3-9.8,5.1-16.7,13.9-19.6,24.7-.8,3-1,5.2-1,9.6v5.8s-2.5,0-2.5,0c-1.4,0-4.6-.3-7-.7h0ZM2848,175c-3.6-3-6.7-5.7-6.9-5.8-.2-.2.5-.9,1.6-1.5,2.5-1.4,5.6-4.9,7-7.6,3.3-6.6,3.2-14.8-.2-21.4-3.7-7.2-11.6-11-20.5-9.9-4.9.6-7.9,2-11.1,5-5.1,4.7-6.8,9.4-6.6,17.4.2,4.5.3,5.4,1.6,8.1,2.8,5.9,8.6,10.4,14.6,11.1,2.2.3,2.4.4,6.9,5.2l4.6,4.9h15.4l-6.5-5.5h0ZM2828.6,159.5c-3.1-1.6-4.3-4.3-4.3-9.9s.2-4.7,1.1-6.5c1.4-2.9,4.3-4.6,7-4.3,2.7.3,4.2,1.4,5.6,4.4,1.1,2.2,1.3,3.1,1.2,6.7,0,4.4-.8,6.7-3,8.7-2.3,2.1-4.7,2.4-7.7.9h0ZM2797.1,170c8.2-1.9,12.7-8.8,10.3-15.9-1.2-3.6-3.7-5.8-9.9-8.8-2.8-1.4-5.4-2.7-5.6-3.1-1-1.3-1-2.2,0-3.4,1.6-1.9,5.2-1.9,10.2-.2l3.8,1.3v-5c-.1,0-.3-5-.3-5l-2.5-.6c-3.8-.9-11.9-.9-15.1,0-6.4,1.9-9.8,6.1-9.8,12.2,0,6.3,2.8,9.2,12.8,13.4,4.2,1.8,4.7,5.1.9,6.4-1.7.6-2.2.6-5-.1-1.7-.4-4.2-1.4-5.7-2.1l-2.6-1.4v10.9l2.6.7c1.4.4,2.8.8,3.1.9,1,.4,11,.2,12.8-.2h0ZM2884.9,165.3v-4.8h-14.5v-31.3h-11.8v40.9h26.3v-4.8ZM2849.9,83.5c11.8-1.4,21.6-3.9,27.7-7.1,4-2.1,5-2.9,6.6-5.2,4.8-7.1-5.9-14.2-26.8-17.7-19.6-3.3-45.3-2.6-61.8,1.8-34,9-20.6,25.6,23.4,28.8,7.2.5,23.5.2,31-.7h0Z"/>
  </g>
  <g>
    <path class="cls-5" d="M1698.5,221.8s-9.4,5.5,6.7,7.3c17,2.4,34.4,1.7,51.2-2.2,4.3,2.6,8.9,4.8,13.6,6.6-48.3,20.7-109.4-1.2-71.5-11.8"/>
    <path class="cls-5" d="M1692.6,194.8s-10.6,7.8,5.6,9.5c22,2.6,44.3,1.5,66-3.2,2.9,2.7,6.4,4.8,10.2,6.2-58.5,17.1-123.6,1.3-81.7-12.5"/>
    <path class="cls-5" d="M1742.4,148.9c6.4,7.7,5.3,19.1-2.4,25.5-.2.2-.5.4-.7.6,0,0,30.2-15.6,16.4-35.2-13-18.2-22.9-27.3,30.9-58.5,0,0-84.6,21.1-44.2,67.7"/>
    <path class="cls-5" d="M1806.4,241.8s7,5.8-7.7,10.2c-27.9,8.5-116.2,11-140.7.3-8.8-3.8,7.7-9.2,12.9-10.3,2.8-.7,5.7-1,8.5-1-9.8-6.9-63.3,13.6-27.2,19.4,98.6,16,179.7-7.2,154.1-18.7"/>
    <path class="cls-5" d="M1703,166.8s-44.9,10.7-15.9,14.5c19.8,1.5,39.6,1.3,59.4-.6,18.6-1.6,37.2-4.9,37.2-4.9-3.9,1.7-7.7,3.7-11.3,6-45.6,12-133.7,6.4-108.3-5.8,12-6.1,25.4-9.3,38.9-9.2"/>
    <path class="cls-5" d="M1783.6,211.8c46.3-24.1,24.9-47.2,10-44.1-1.8.3-3.6.8-5.3,1.4,1-1.4,2.4-2.5,4-3.1,29.6-10.4,52.3,30.7-9.6,46.9.4-.3.7-.8.9-1.2"/>
    <path class="cls-5" d="M1755.6,30.8s25.7,25.7-24.3,65.2c-40.1,31.7-9.1,49.7,0,70.4-23.4-21.1-40.6-39.7-29.1-57,16.9-25.4,63.8-37.7,53.4-78.5"/>
    <path class="cls-5" d="M1707.6,277c44.5,2.8,112.8-1.6,114.4-22.6,0,0-3.1,7.9-36.8,14.3-37.2,6.4-75.2,7-112.6,1.8,0,0,5.7,4.7,34.9,6.6"/>
  </g>
  <g>
    <ellipse class="cls-5" cx="2127.7" cy="154.3" rx="205.7" ry="107.1"/>
    <path class="cls-3" d="M1979.7,217.7l22.5-114.1h52.1c22.5,1.4,33.8,12.7,33.8,32.4,0,33.8-26.8,53.5-50.7,52.1h-25.4l-5.6,29.6h-26.8ZM2017.8,167l7-42.3h18.3c9.9,0,16.9,4.2,16.9,12.7-1.4,24-12.7,28.2-25.4,29.6h-16.9ZM2083,188.1l22.5-114.1h26.8l-5.6,29.6h25.4c22.5,1.4,31,12.7,28.2,26.8l-9.9,57.8h-28.2l9.9-52.1c1.4-7,1.4-11.3-8.5-11.3h-21.1l-12.7,63.4h-26.8ZM2168.5,217.7l22.5-114.1h52.1c22.5,1.4,33.8,12.7,33.8,32.4,0,33.8-26.8,53.5-50.7,52.1h-25.4l-5.6,29.6h-26.8ZM2206.6,167l7-42.3h18.3c9.9,0,16.9,4.2,16.9,12.7-1.4,24-12.7,28.2-25.4,29.6h-16.9Z"/>
  </g>
  <path class="cls-5" d="M2585.1,124.6l-1.5-.8c.8,1.9,1,3.5,1,4.9.3-1.2.5-2.4.5-3.6,0,1.6-.2,3-.5,4.4v-.8c-.4,1.8-1.1,3.5-2.1,5l.5-.5c-5.7,9.5-21.1,11.5-28.7,1.8-12.2-15.7.3-32.6,2-49.2,2.2-20.8-10.9-41-27.1-53.1,8.9,14.4-2.8,33.5-12.2,44.2-9.1,10.3-20.2,19-30.3,28.4-10.8,10.1-21.2,20.7-30.1,32.6-17.8,23.7-28.6,53.5-20.7,83.1,8,29.6,33.6,48.4,62.5,55-14.6-6.3-28.2-22.3-28.3-38.7,0-17.9,11.3-33.1,25.4-43-1.7,6.4-2.6,12.3,1.6,18,3.9,5.3,10.7,7.9,17.2,6.5,15.1-3.3,15.8-19.9,6.8-29.5-8.8-9.6-17.4-20.4-14-34.2,1.7-7,6-13.5,11.4-18.1-4.2,10.9,7.7,21.7,15.4,27.1,13.5,9.3,28.3,16.3,40.7,27.3,13.1,11.5,22.7,27,20.7,45-2.1,19.5-17.6,33-35,39.9,36.7-8.1,74.6-36.6,75.4-77.3.6-33.5-22.3-59.3-50.8-74Z"/>
</svg>