<?xml version="1.0" encoding="UTF-8"?>
<svg id="Calque_1" data-name="Calque 1" xmlns="http://www.w3.org/2000/svg" version="1.1" viewBox="0 0 3276 308">
  <defs>
    <style>
      .cls-1 {
        fill: #323330;
      }

      .cls-1, .cls-2, .cls-3 {
        stroke-width: 0px;
      }

      .cls-2 {
        fill: #f98296;
      }

      .cls-3 {
        fill: #f4a2b4;
      }

      .cls-4 {
        fill: none;
        stroke: #22222c;
      }
    </style>
  </defs>
  <path class="cls-2" d="M43.7,34h159.5c24.2,0,43.7,19.6,43.7,43.7v153.3c0,24.2-19.6,43.7-43.7,43.7H43.7c-24.2,0-43.7-19.6-43.7-43.7V77.7c0-24.2,19.6-43.7,43.7-43.7Z"/>
  <path class="cls-1" d="M55.5,202.9v-105.8c0-.7.3-1.1,1-1.1,1.7,0,3.4,0,5.8-.1,2.5-.1,5-.1,7.8-.2,2.8-.1,5.8-.1,8.9-.2,3.2-.1,6.3-.1,9.4-.1,8.4,0,15.4,1,21.2,3.2,5.1,1.7,9.9,4.6,13.8,8.4,3.3,3.3,5.9,7.3,7.5,11.7,1.5,4.3,2.4,8.7,2.4,13.4,0,8.8-2.1,16.1-6.2,21.9-4.1,5.8-9.9,10.1-16.6,12.5-7,2.6-14.7,3.5-23.1,3.5s-4.1,0-5.1-.1c-1-.1-2.5-.1-4.4-.1v33c.1.7-.4,1.3-1.1,1.4h-20c-.8,0-1.2-.4-1.2-1.3ZM78,115.8v34.6c1.4.1,2.8.2,4,.2h5.5c4,0,8-.6,11.8-1.9,3.3-.9,6.2-2.9,8.4-5.5,2.2-2.6,3.2-6.1,3.2-10.6.1-3.2-.7-6.4-2.4-9.2-1.7-2.7-4.2-4.7-7.2-5.9-3.8-1.5-7.9-2.2-12.1-2.1-2.7,0-5,0-7,.1-2.1-.1-3.5,0-4.2.1ZM197.5,144.1c-3.1-1.6-6.4-2.8-9.9-3.5-3.8-.8-7.6-1.3-11.5-1.3-2.1-.1-4.2.2-6.2.7-1.3.3-2.5,1-3.2,2.1-.5.8-.8,1.9-.8,2.8s.4,1.9,1,2.7c.9,1.1,2.2,2.1,3.5,2.8,2.4,1.2,4.8,2.4,7.3,3.4,5.6,1.9,10.9,4.4,15.8,7.5,3.4,2.2,6.2,5,8.1,8.5,1.6,3.3,2.5,6.9,2.4,10.6.1,4.8-1.3,9.7-4,13.7-2.9,4.1-6.9,7.3-11.5,9.2-5,2.2-11.2,3.3-18.6,3.3s-9.4-.4-14-1.3c-3.6-.6-7.2-1.7-10.5-3.3-.7-.4-1.2-1.1-1.1-2v-17.9c0-.3.1-.7.4-.9.3-.2.6-.1.9.1,4,2.4,8.2,4,12.8,5,3.9,1,8,1.5,12.1,1.5s6.7-.5,8.5-1.4c1.6-.7,2.8-2.5,2.8-4.3s-.8-2.8-2.5-4.1c-1.6-1.3-5-2.9-10.1-4.8-5.2-1.9-10.1-4.3-14.6-7.4-3.2-2.3-5.9-5.2-7.8-8.7-1.6-3.3-2.5-6.9-2.4-10.5,0-4.4,1.2-8.6,3.5-12.4,2.6-4.1,6.4-7.4,10.8-9.5,4.8-2.5,10.9-3.6,18.2-3.6s8.5.3,12.8.9c3.1.4,6.1,1.2,8.8,2.4.4.1.8.5,1,.9.1.4.2.8.2,1.2v16.8c0,.4-.2.8-.5,1-.9.2-1.4.2-1.9,0Z"/>
  <path class="cls-2" d="M425.3,32h161.5c24.5,0,44.3,19.8,44.3,44.3v155.2c0,24.5-19.8,44.3-44.3,44.3h-161.5c-24.5,0-44.3-19.8-44.3-44.3V76.3c0-24.5,19.8-44.3,44.3-44.3Z"/>
  <path class="cls-1" d="M501.8,177.8h-38.8l-7.9,24.5c-.2.9-1,1.6-2,1.5h-19.6c-1.1,0-1.5-.6-1.1-1.9l33.5-96.6c.3-1,.6-2.2,1-3.4.4-2.2.6-4.5.6-6.8-.1-.5.3-1,.8-1.1h27c.8,0,1.2.3,1.4.8l38,107.3c.3,1.1,0,1.7-1,1.7h-21.8c-.7.1-1.5-.4-1.7-1.1l-8.5-24.8ZM469.1,156.7h26.5c-.6-2.2-1.5-4.8-2.4-7.5-.9-2.8-1.9-5.8-2.8-9-1-3.2-2-6.4-3-9.6-1-3.2-2-6.2-2.8-9.3-.8-2.9-1.6-5.6-2.3-8.1h-.2c-.9,4.5-2.1,9-3.5,13.4-1.6,5-3.1,10.2-4.8,15.4-1.5,5.3-3,10.2-4.6,14.6ZM558.1,112.2c-3.4.1-6.8-1.2-9.3-3.6-2.4-2.6-3.6-6-3.5-9.6-.1-3.5,1.2-6.9,3.8-9.3,2.5-2.4,5.8-3.6,9.3-3.6s7.2,1.2,9.5,3.6c2.3,2.5,3.5,5.8,3.4,9.3.1,3.5-1.1,7-3.6,9.6-2.4,2.5-5.9,3.9-9.5,3.6ZM546.4,202.6v-80.2c0-1,.4-1.5,1.4-1.5h20.6c.9,0,1.4.5,1.4,1.5v80.2c0,1.1-.4,1.7-1.4,1.7h-20.4c-1,0-1.6-.6-1.6-1.7Z"/>
  <path class="cls-2" d="M1314.5,154.2c0-22.3,18-40.4,40.4-40.4s40.4,18,40.4,40.4-18.1,40.4-40.4,40.4-40.4-18.1-40.4-40.4Z"/>
  <path class="cls-2" d="M1233.8,234.9c0-22.3,18.1-40.4,40.4-40.4h40.4v40.4c0,22.3-18.1,40.4-40.4,40.4s-40.4-18-40.4-40.4Z"/>
  <path class="cls-3" d="M1314.5,33.1v80.7h40.4c22.3,0,40.4-18,40.4-40.4s-18.1-40.4-40.4-40.4h-40.4Z"/>
  <path class="cls-2" d="M1233.8,73.5c0,22.3,18.1,40.4,40.4,40.4h40.4V33.1h-40.4c-22.3,0-40.4,18-40.4,40.4Z"/>
  <path class="cls-3" d="M1233.8,154.2c0,22.3,18.1,40.4,40.4,40.4h40.4v-80.8h-40.4c-22.3,0-40.4,18.1-40.4,40.4Z"/>
  <path class="cls-2" d="M852,32h160.8c24.4,0,44.1,19.7,44.1,44.2v154.8c0,24.4-19.7,44.2-44.1,44.2h-160.8c-24.4,0-44.1-19.7-44.1-44.2V76.2c0-24.4,19.7-44.2,44.1-44.2Z"/>
  <path class="cls-1" d="M938.8,95.9l-31.1,51.4,33.2,54.5c.2.4.3.8.2,1.2,0,.4-.5.1-1.1.2h-23.8c-1.7,0-2.8-.1-3.5-1.1-2.2-4.4-4.5-8.6-6.6-13-2.2-4.3-4.6-8.6-7.1-13.1-2.5-4.5-5-8.9-7.5-13.5h-.2c-2.2,4.5-4.6,8.9-7,13.4-2.4,4.5-4.8,8.9-7,13.3-2.4,4.4-4.8,8.8-7.2,13.1-.4,1-1.2,1.1-2.4,1.1h-22.8c-.4,0-.7.2-.7-.3-.1-.4,0-.8.2-1.1l32.3-53-31.4-53.3c-.3-.4-.4-.8-.2-1,.2-.3.6-.4,1-.4h23.5c.5,0,1,.1,1.5.2.4.2.7.5,1,.9,2,4.5,4.2,8.9,6.6,13.4,2.5,4.5,4.9,8.8,7.5,13.2,2.5,4.4,4.8,8.7,7,13.2h.2c2.2-4.6,4.5-9,6.7-13.4,2.3-4.4,4.7-8.7,7.1-13.1,2.4-4.4,4.7-8.8,6.9-13.1,0-.4.3-.8.6-1,.4-.2.8-.3,1.3-.2h21.9c.5-.1,1,.2,1.1.7.1.1,0,.5-.3.7ZM986.8,205.5c-7.7.1-15.3-1.5-22.3-4.7-6.5-3-11.9-8-15.7-14.1-3.8-6.3-5.7-14.2-5.7-23.7-.1-7.7,1.9-15.3,5.7-21.9,3.9-6.8,9.7-12.4,16.5-16.1,7.3-4.1,16-6,26.2-6s1.2,0,2.2.1c.9.1,2,.1,3.2.2v-32.8c0-.7.3-1.1,1-1.1h21.1c.5-.1.9.3,1,.7v99.1c0,1.9,0,3.9.2,6.2.2,2.2.3,4.3.4,6,0,.7-.3,1.4-1,1.7-5.4,2.3-11.1,3.9-16.9,5-5.3.9-10.6,1.5-16,1.5ZM996.9,184.7v-45.7c-.9-.2-1.9-.4-2.8-.5-1.1-.1-2.3-.2-3.4-.2-4.1,0-8.1.8-11.7,2.7-3.5,1.8-6.5,4.4-8.8,7.7-2.3,3.3-3.4,7.8-3.4,13.2,0,3.6.5,7.3,1.8,10.7,1,2.8,2.6,5.3,4.7,7.4,2,1.9,4.4,3.3,7.1,4.2,2.8.9,5.7,1.4,8.6,1.4s3-.1,4.4-.2c1.3.1,2.5-.1,3.7-.5Z"/>
  <path class="cls-4" d="M3275,0v308"/>
</svg>